<svg width="34" height="24" viewBox="0 0 34 24" fill="none" xmlns="http://www.w3.org/2000/svg">
<path d="M33.5643 0.230679C32.3263 0.775392 31.0388 1.14679 29.7018 1.34487C31.1378 0.453516 32.1282 -0.809229 32.6729 -2.44337C31.3359 -1.65106 29.8998 -1.10635 28.3647 -0.809229C27.0772 -2.19577 25.3936 -2.9138 23.3138 -2.96332C21.432 -2.9138 19.8474 -2.24529 18.5599 -0.957788C17.2724 0.329717 16.6039 1.9391 16.5544 3.87036C16.5544 4.41507 16.6286 4.93502 16.7772 5.43022C13.9051 5.23214 11.2558 4.51411 8.82933 3.27612C6.45239 2.03814 4.4221 0.379237 2.73844 -1.70058C2.1442 -0.660671 1.84709 0.478276 1.84709 1.71626C1.84709 2.90473 2.11944 3.99415 2.66416 4.98454C3.20887 5.97493 3.9269 6.76724 4.81825 7.36147C3.67931 7.31196 2.66416 7.0396 1.77281 6.5444V6.61868C1.77281 8.30234 2.268 9.76317 3.25839 11.0012C4.2983 12.1896 5.61056 12.9572 7.19519 13.3038C6.65047 13.4524 6.05624 13.5266 5.41249 13.5266C4.96681 13.5266 4.5459 13.4771 4.14974 13.3781C4.59542 14.7646 5.38773 15.9036 6.52667 16.7949C7.66562 17.6368 8.97788 18.0824 10.4635 18.1319C9.32452 19.0728 8.03702 19.7908 6.60095 20.286C5.16489 20.7812 3.65455 21.0288 2.06993 21.0288C1.52521 21.0288 0.980498 21.0041 0.435785 20.9546C1.92137 21.8954 3.53075 22.6382 5.26393 23.1829C7.04663 23.7276 8.90361 24 10.8349 24C17.1238 23.7524 21.9025 21.6478 25.1707 17.6863C28.4885 13.7247 30.1722 9.39177 30.2217 4.68743L30.1474 3.79608C31.4845 2.80569 32.6234 1.61722 33.5643 0.230679Z" fill="#1DA1F2"/>
</svg>
